<?xml version="1.0" standalone="no"?>
<!DOCTYPE svg PUBLIC "-//W3C//DTD SVG 20010904//EN"
 "http://www.w3.org/TR/2001/REC-SVG-20010904/DTD/svg10.dtd">
<svg version="1.0" xmlns="http://www.w3.org/2000/svg"
 width="786.000000pt" height="786.000000pt" viewBox="0 0 786.000000 786.000000"
 preserveAspectRatio="xMidYMid meet">

<g transform="translate(0.000000,786.000000) scale(0.100000,-0.100000)"
fill="#000000" stroke="none">
<path d="M501 7684 c-118 -32 -235 -123 -285 -222 -55 -108 -56 -124 -56 -669
0 -334 4 -520 11 -555 36 -169 169 -302 341 -343 86 -20 1021 -21 1113 -1 170
37 307 174 345 346 8 40 11 200 8 580 -3 522 -3 525 -26 582 -50 124 -146 220
-269 270 l-58 23 -535 2 c-444 2 -544 0 -589 -13z m951 -255 c72 -15 115 -39
165 -91 99 -103 105 -138 101 -584 -3 -347 -4 -361 -25 -407 -31 -66 -102
-138 -170 -173 l-58 -29 -395 0 c-385 0 -396 1 -442 22 -66 30 -139 102 -174
170 l-29 58 -3 355 c-4 448 1 482 97 583 48 51 93 78 155 93 68 16 703 19 778
3z"  fill="white"/>
<path d="M860 7171 c-70 -22 -121 -65 -156 -131 -16 -30 -19 -63 -22 -241 -3
-203 -3 -208 21 -255 31 -60 68 -97 127 -123 40 -18 65 -21 243 -21 182 0 201
2 240 21 55 28 94 64 120 114 21 37 22 54 22 255 0 201 -1 218 -22 255 -25 47
-64 85 -113 111 -30 17 -62 19 -235 21 -110 1 -211 -2 -225 -6z" fill="white"/>
<path d="M2551 7686 c-35 -19 -50 -54 -51 -114 0 -58 11 -88 44 -114 19 -16
53 -18 338 -18 224 0 325 -4 343 -12 36 -16 55 -57 55 -118 0 -59 21 -103 57
-119 36 -17 121 -13 153 6 37 22 50 52 50 121 0 60 15 90 57 111 14 7 91 11
210 11 163 0 191 3 209 18 32 26 44 55 44 112 0 61 -19 102 -55 118 -40 18
-1421 16 -1454 -2z"  fill="white"/>
<path d="M4371 7686 c-35 -19 -50 -54 -51 -114 0 -96 -38 -132 -137 -132 -85
0 -122 -37 -123 -122 0 -31 5 -68 11 -81 16 -36 60 -57 118 -57 94 0 131 -37
131 -130 0 -93 37 -130 131 -130 56 0 85 12 111 44 16 19 18 52 18 332 0 202
-4 322 -11 343 -6 18 -24 38 -40 46 -35 18 -126 19 -158 1z"  fill="white"/>
<path d="M5149 7685 c-31 -17 -49 -61 -49 -121 0 -87 39 -124 130 -124 93 0
130 -37 130 -131 0 -91 39 -129 131 -129 58 0 102 21 118 57 15 32 14 360 0
402 -19 55 -46 61 -251 61 -140 -1 -189 -4 -209 -15z"  fill="white"/>
<path d="M6223 7685 c-172 -47 -301 -184 -333 -354 -16 -86 -13 -1044 4 -1106
46 -172 184 -302 355 -335 32 -6 254 -10 550 -10 538 0 555 1 663 56 106 54
201 180 228 304 8 40 11 200 8 580 -3 522 -3 525 -26 582 -50 124 -146 220
-269 270 l-58 23 -535 2 c-438 2 -545 -1 -587 -12z m1020 -279 c68 -35 140
-108 170 -174 21 -46 22 -57 22 -442 l0 -395 -32 -60 c-36 -71 -98 -131 -168
-165 l-50 -25 -395 0 -395 0 -58 30 c-74 38 -130 94 -165 165 l-27 55 -3 355
c-2 241 0 374 8 415 19 94 70 170 153 222 76 49 112 52 512 50 l370 -2 58 -29z" fill="white"/>
<path d="M6580 7171 c-70 -22 -121 -65 -156 -131 -16 -30 -19 -63 -22 -236 -3
-190 -2 -205 19 -253 24 -57 72 -104 133 -132 35 -16 68 -19 236 -19 168 0
201 3 236 19 61 28 109 75 133 132 21 48 22 63 19 253 -3 183 -5 204 -25 241
-25 47 -64 85 -113 111 -30 17 -62 19 -235 21 -110 1 -211 -2 -225 -6z" fill="white"/>
<path d="M4895 7428 c-41 -22 -55 -50 -55 -116 0 -60 2 -66 34 -98 32 -32 38
-34 98 -34 96 1 128 35 128 139 0 53 -3 63 -31 90 -28 28 -36 31 -92 31 -34 0
-71 -6 -82 -12z" fill="white"/>
<path d="M2294 7169 c-11 -6 -28 -23 -37 -39 -15 -26 -17 -92 -17 -729 0 -521
3 -707 12 -726 16 -36 57 -55 118 -55 65 0 105 21 119 61 7 22 11 174 11 466
0 471 1 476 55 501 17 8 87 12 205 12 195 0 222 6 246 51 17 33 19 121 3 152
-28 54 -40 57 -242 57 -119 0 -196 4 -210 11 -42 21 -57 51 -57 111 0 69 -13
99 -50 121 -31 19 -122 22 -156 6z" fill="white"/>
<path d="M3068 7163 c-36 -23 -48 -53 -48 -121 1 -87 38 -122 130 -122 93 0
130 37 130 131 0 58 -21 102 -57 118 -36 17 -124 13 -155 -6z" fill="white"/>
<path d="M3834 7146 c-31 -31 -34 -39 -34 -97 -1 -97 -35 -129 -137 -129 -86
-1 -123 -37 -123 -123 0 -98 -37 -137 -130 -137 -61 0 -102 -19 -118 -55 -8
-18 -12 -117 -12 -335 0 -218 -4 -317 -12 -335 -16 -36 -57 -55 -118 -55 -61
0 -102 -19 -118 -55 -8 -17 -12 -87 -12 -205 0 -118 4 -188 12 -205 22 -49 51
-55 248 -55 114 0 189 -4 203 -11 42 -21 57 -51 57 -112 0 -100 -35 -137 -130
-137 -61 0 -92 -14 -113 -50 -21 -35 -22 -121 -3 -159 24 -45 51 -51 247 -51
267 0 258 -8 259 260 1 268 -8 260 259 260 118 0 189 -4 206 -12 36 -16 55
-57 55 -118 0 -93 -37 -130 -131 -130 -58 0 -102 -21 -118 -57 -6 -13 -11 -50
-11 -81 0 -60 15 -90 57 -111 29 -15 377 -15 406 0 42 21 57 51 57 112 0 103
35 137 136 137 50 0 59 3 90 34 l34 34 0 186 c0 204 -6 232 -55 254 -17 8 -88
12 -206 12 -196 0 -225 6 -247 55 -7 14 -12 49 -12 76 0 91 -41 129 -137 129
-85 0 -122 37 -123 122 0 101 34 138 129 138 92 0 131 38 131 130 0 65 -21
105 -61 119 -43 15 -373 15 -402 0 -57 -29 -57 -27 -57 -371 0 -341 -2 -358
-51 -384 -36 -18 -122 -18 -158 0 -49 26 -51 43 -51 384 0 285 2 319 18 338
26 32 55 44 111 44 94 0 131 37 131 130 0 61 19 102 55 118 17 8 87 12 205 12
118 0 188 4 205 12 36 16 55 57 55 118 0 92 -41 130 -137 130 -86 0 -122 37
-123 123 0 102 -32 136 -128 137 -60 0 -66 -2 -98 -34z" fill="white"/>
<path d="M5148 7163 c-36 -23 -48 -53 -48 -121 1 -87 38 -122 130 -122 93 0
130 37 130 131 0 58 -21 102 -57 118 -36 17 -124 13 -155 -6z" fill="white"/>
<path d="M4624 6902 c-12 -9 -27 -27 -33 -39 -15 -29 -14 -115 1 -148 22 -49
51 -55 248 -55 197 0 226 6 248 55 15 33 16 119 1 148 -28 54 -39 57 -249 57
-170 0 -198 -3 -216 -18z" fill="white"/>
<path d="M5420 6909 c-37 -13 -60 -59 -60 -118 0 -94 37 -131 130 -131 93 0
130 39 130 136 0 56 -17 92 -51 110 -31 16 -110 17 -149 3z" fill="white"/>
<path d="M4371 6646 c-35 -19 -50 -54 -51 -114 0 -94 40 -132 137 -132 84 0
123 40 123 124 0 62 -18 104 -51 121 -35 18 -126 19 -158 1z" fill="white" />
<path d="M5149 6645 c-31 -17 -49 -61 -49 -121 0 -84 39 -124 123 -124 96 0
137 38 137 129 0 62 -16 98 -51 117 -36 18 -126 17 -160 -1z" fill="white"/>
<path d="M2815 6388 c-52 -28 -55 -40 -55 -248 0 -170 3 -198 18 -216 27 -33
56 -44 121 -44 53 0 63 3 90 31 l31 31 0 198 0 198 -31 31 c-28 28 -36 31 -92
31 -34 0 -71 -6 -82 -12z" fill="white"/>
<path d="M4611 6369 c-28 -27 -31 -37 -31 -90 0 -102 32 -138 122 -139 31 0
68 -4 82 -10 36 -13 56 -59 56 -127 1 -91 37 -123 139 -123 53 0 63 3 90 31
l31 31 0 198 0 198 -31 31 -31 31 -198 0 -198 0 -31 -31z" fill="white"/>
<path d="M4374 6129 c-33 -16 -54 -62 -54 -118 0 -94 37 -131 130 -131 92 0
129 35 130 122 0 69 -12 99 -50 121 -31 19 -122 22 -156 6z" fill="white"/>
<path d="M5414 6129 c-33 -16 -54 -62 -54 -118 0 -94 37 -131 130 -131 92 0
129 35 130 122 0 69 -12 99 -50 121 -31 19 -122 22 -156 6z" fill="white"/>
<path d="M5151 5866 c-34 -19 -50 -54 -51 -107 0 -100 36 -139 130 -139 93 0
130 37 130 131 0 62 -23 105 -63 119 -41 14 -117 12 -146 -4z" fill="white"/>
<path d="M211 5606 c-35 -19 -50 -54 -51 -114 0 -94 40 -132 137 -132 84 0
123 40 123 124 0 62 -18 104 -51 121 -35 18 -126 19 -158 1z" fill="white"/>
<path d="M731 5606 c-13 -7 -30 -24 -37 -37 -17 -30 -18 -120 -2 -154 25 -56
18 -55 645 -55 533 0 580 2 599 18 32 26 44 55 44 112 0 61 -19 102 -55 118
-40 18 -1161 16 -1194 -2z"  fill="white"/>
<path d="M5411 5606 c-35 -19 -50 -54 -51 -114 0 -94 40 -132 137 -132 84 0
123 40 123 124 0 62 -18 104 -51 121 -35 18 -126 19 -158 1z" fill="white"/>
<path d="M5931 5606 c-35 -19 -50 -54 -51 -113 0 -99 -36 -133 -139 -133 -53
0 -63 -3 -90 -31 l-31 -31 0 -449 c0 -469 1 -476 44 -511 26 -22 125 -24 165
-4 45 24 51 51 51 247 0 239 11 259 140 259 52 0 62 3 89 31 28 27 31 37 31
90 0 102 34 139 130 139 93 0 130 -37 130 -130 0 -93 -37 -130 -130 -130 -27
0 -61 -5 -75 -12 -49 -22 -55 -51 -55 -248 0 -114 -4 -189 -11 -203 -21 -42
-51 -57 -112 -57 -102 0 -136 -32 -137 -129 0 -59 2 -65 34 -97 l34 -34 186 0
c204 0 232 -6 254 -55 7 -14 12 -48 12 -75 0 -93 37 -130 129 -130 28 0 62 -5
76 -12 49 -22 55 -51 55 -248 0 -197 -6 -226 -55 -248 -18 -8 -117 -12 -336
-12 -209 0 -317 -4 -332 -11 -43 -22 -57 -50 -57 -118 0 -59 2 -65 34 -97 31
-31 40 -34 90 -34 101 0 136 -34 136 -137 1 -86 37 -123 123 -123 98 0 137
-37 137 -130 0 -61 -19 -102 -55 -118 -36 -16 -374 -16 -410 0 -49 22 -55 50
-55 254 l0 186 -34 34 -34 34 -186 0 c-112 0 -194 -4 -209 -11 -50 -23 -57
-52 -57 -249 0 -197 -6 -226 -55 -248 -14 -7 -48 -12 -76 -12 -92 0 -129 -39
-129 -137 0 -86 39 -123 130 -123 61 0 97 -16 116 -51 17 -34 18 -118 2 -154
-22 -49 -50 -55 -254 -55 l-186 0 -34 -34 c-32 -32 -34 -38 -34 -98 1 -96 35
-128 137 -128 86 -1 123 -37 123 -123 0 -98 37 -137 130 -137 93 0 130 -37
130 -131 0 -62 23 -105 63 -119 18 -6 152 -10 334 -10 316 0 331 -2 365 -44
21 -25 24 -121 6 -161 -24 -53 -41 -55 -377 -55 -202 0 -318 -4 -334 -11 -50
-23 -57 -52 -57 -248 0 -118 4 -189 12 -206 16 -36 57 -55 118 -55 93 0 130
39 130 136 0 87 39 124 130 124 93 0 130 -37 130 -130 0 -27 5 -61 12 -75 24
-53 41 -55 378 -55 344 0 358 -2 379 -61 6 -18 11 -52 11 -76 0 -50 12 -80 44
-105 18 -15 46 -18 216 -18 170 0 198 3 216 18 32 26 44 55 44 111 0 94 -37
131 -130 131 -61 0 -102 19 -118 55 -8 17 -12 89 -12 211 l0 186 -34 34 -34
34 -186 0 c-204 0 -232 6 -254 55 -7 14 -12 48 -12 75 0 61 16 97 51 116 35
18 378 20 412 3 43 -22 57 -50 57 -117 0 -59 3 -67 34 -98 31 -31 40 -34 90
-34 67 0 107 -18 124 -55 8 -17 12 -86 12 -199 0 -191 8 -229 51 -251 36 -19
122 -19 158 -1 45 24 51 51 51 246 0 118 4 188 12 205 16 36 57 55 118 55 59
0 103 21 119 57 16 35 15 633 -1 668 -22 49 -51 55 -248 55 -197 0 -226 -6
-248 -55 -7 -14 -12 -48 -12 -75 0 -61 -16 -97 -51 -116 -40 -20 -378 -20
-418 0 -45 24 -51 51 -51 246 0 118 4 188 12 205 17 37 57 55 124 55 50 0 59
3 90 34 31 31 34 39 34 98 1 94 35 128 130 128 92 0 129 -35 130 -122 0 -127
22 -138 260 -138 238 0 260 12 260 138 -1 85 -38 122 -123 122 -98 0 -137 37
-137 130 0 93 37 130 131 130 92 0 129 39 129 137 0 54 -20 95 -55 111 -36 16
-374 16 -410 0 -36 -16 -55 -57 -55 -118 0 -61 -19 -102 -55 -118 -33 -15
-117 -15 -150 0 -53 24 -55 40 -55 385 0 286 2 320 18 339 26 33 55 44 112 44
92 0 129 -35 130 -122 0 -127 22 -138 260 -138 238 0 260 12 260 138 -1 85
-38 122 -123 122 -98 0 -137 37 -137 130 0 61 -19 102 -55 118 -17 8 -87 12
-205 12 -118 0 -188 4 -205 12 -53 24 -55 40 -55 385 -1 410 17 383 -253 383
-192 0 -230 8 -252 51 -18 34 -20 118 -3 154 22 49 51 55 248 55 197 0 226 6
248 55 8 17 12 89 12 211 l0 186 -34 34 c-31 31 -40 34 -90 34 -102 0 -136 35
-136 137 0 61 15 91 57 112 14 7 91 11 210 11 163 0 191 3 209 18 32 26 44 55
44 112 0 61 -19 102 -55 118 -40 18 -1161 16 -1194 -2z m418 -3380 c49 -26 51
-43 51 -376 0 -333 -2 -350 -51 -376 -37 -19 -633 -21 -674 -2 -53 24 -55 40
-55 385 0 286 2 320 18 339 34 42 46 43 370 44 252 0 318 -3 341 -14z" fill="white"/>
<path d="M5914 1946 c-32 -32 -34 -38 -34 -97 1 -97 35 -129 139 -129 53 0 63
3 90 31 28 27 31 37 31 90 0 104 -32 138 -128 139 -60 0 -66 -2 -98 -34z"  fill="white"/>
<path d="M451 5329 l-31 -31 0 -196 c0 -172 -3 -200 -18 -218 -25 -32 -55 -44
-105 -44 -62 0 -100 -16 -120 -49 -25 -43 -25 -379 0 -422 20 -33 58 -49 120
-49 86 0 123 39 123 131 0 92 37 129 130 129 93 0 130 37 130 130 0 96 37 130
140 130 52 0 62 3 89 31 28 27 31 37 31 90 0 102 -32 138 -122 139 -31 0 -68
4 -82 10 -36 13 -56 59 -56 127 -1 91 -37 123 -139 123 -53 0 -63 -3 -90 -31z" fill="white"/>
<path d="M2035 5348 c-40 -22 -55 -51 -55 -110 0 -103 -34 -138 -136 -138 -50
0 -59 -3 -90 -34 -32 -32 -34 -38 -34 -97 1 -97 35 -129 137 -129 86 -1 123
-37 123 -123 0 -63 18 -105 51 -122 34 -18 118 -20 154 -3 49 22 55 51 55 247
0 196 6 223 51 247 33 17 371 20 413 4 48 -18 56 -52 56 -250 0 -197 -6 -226
-55 -248 -17 -8 -87 -12 -205 -12 -118 0 -188 -4 -205 -12 -36 -16 -55 -57
-55 -118 0 -93 -39 -130 -137 -130 -85 0 -122 -37 -123 -122 0 -101 -35 -138
-129 -138 -98 0 -131 34 -131 137 -1 91 -37 123 -139 123 -53 0 -63 -3 -90
-31 l-31 -31 0 -198 0 -198 31 -31 31 -31 319 0 c347 0 363 2 387 55 7 14 12
48 12 75 0 93 37 130 130 130 96 0 130 -37 130 -138 -1 -85 -38 -122 -123
-122 -62 0 -100 -16 -120 -49 -20 -34 -23 -118 -5 -156 22 -49 51 -55 248 -55
197 0 226 6 248 55 7 14 12 48 12 75 0 96 37 130 139 130 53 0 63 3 90 31 l31
31 0 718 0 718 -31 31 -31 31 -451 0 c-309 -1 -458 -4 -472 -12z"  fill="white"/>
<path d="M5155 5348 c-40 -22 -55 -51 -55 -110 0 -69 12 -99 50 -121 32 -19
117 -23 153 -6 36 16 57 60 57 119 0 94 -39 130 -139 130 -25 0 -55 -6 -66
-12z" fill="white"/>
<path d="M7495 5346 c-38 -16 -55 -53 -55 -117 0 -58 21 -102 57 -118 36 -17
121 -13 153 6 38 22 50 52 50 121 0 60 -15 90 -57 111 -29 15 -111 13 -148 -3z" fill="white"/>
<path d="M4874 5066 c-32 -32 -34 -38 -34 -97 1 -97 35 -129 139 -129 53 0 63
3 90 31 28 27 31 37 31 90 0 104 -32 138 -128 139 -60 0 -66 -2 -98 -34z" fill="white"/>
<path d="M731 4566 c-46 -25 -50 -48 -51 -249 l0 -189 34 -34 c32 -32 38 -34
98 -34 67 0 95 14 117 57 16 31 15 374 -1 408 -7 15 -24 33 -39 41 -35 18
-126 18 -158 0z"  fill="white"/>
<path d="M1771 4566 c-35 -19 -50 -54 -51 -113 0 -98 36 -133 137 -133 88 1
123 37 123 129 0 62 -16 98 -51 117 -35 18 -126 18 -158 0z"  fill="white"/>
<path d="M3780 4549 c-115 -78 -203 -108 -345 -118 -156 -11 -149 1 -142 -251
14 -493 62 -615 287 -747 52 -31 127 -76 166 -99 39 -24 82 -44 96 -44 14 0
43 13 64 28 21 16 91 57 154 93 66 36 136 84 163 111 109 109 147 265 163 678
9 227 13 220 -142 231 -134 8 -230 39 -325 104 -36 25 -72 45 -80 45 -8 0 -34
-14 -59 -31z m315 -232 c44 -9 96 -18 115 -20 l35 -2 -1 -170 c-3 -271 -39
-440 -110 -507 -19 -18 -93 -67 -166 -109 l-131 -75 -124 71 c-68 39 -139 83
-158 98 -75 60 -108 187 -127 495 -12 205 -13 202 53 202 63 0 189 39 273 83
l81 43 90 -46 c54 -27 122 -53 170 -63z" fill="white"/>
<path d="M4891 4566 c-35 -19 -50 -54 -51 -113 0 -96 36 -133 130 -133 92 0
129 -35 130 -122 0 -31 5 -68 11 -81 16 -36 60 -57 118 -57 94 0 131 -37 131
-129 0 -94 37 -131 130 -131 61 0 102 -19 118 -55 15 -33 15 -102 1 -144 -19
-54 -46 -61 -249 -61 -203 0 -230 -7 -249 -61 -14 -42 -15 -370 0 -402 16 -36
60 -57 118 -57 92 0 131 38 131 129 0 27 5 62 12 76 22 49 51 55 248 55 197 0
226 6 248 55 9 18 12 118 12 341 l0 316 -34 34 c-31 31 -40 34 -90 34 -101 0
-136 34 -136 137 -1 86 -37 123 -123 123 -98 0 -137 37 -137 130 0 61 -19 102
-55 118 -38 17 -382 16 -414 -2z" fill="white"/>
<path d="M6971 4566 c-35 -19 -50 -54 -51 -113 0 -64 15 -100 51 -119 34 -17
358 -20 406 -4 40 14 63 57 63 120 0 61 -19 102 -55 118 -38 17 -382 16 -414
-2z"  fill="white"/>
<path d="M7495 4306 c-38 -16 -55 -53 -55 -117 0 -58 21 -102 57 -118 36 -17
121 -13 153 6 38 22 50 52 50 121 0 60 -15 90 -57 111 -29 15 -111 13 -148 -3z"  fill="white"/>
<path d="M464 4042 c-33 -27 -44 -56 -44 -121 0 -53 3 -63 31 -90 27 -28 37
-31 90 -31 104 0 138 32 139 129 0 59 -2 65 -34 97 -32 32 -38 34 -97 34 -46
0 -70 -5 -85 -18z"  fill="white"/>
<path d="M7228 4043 c-36 -23 -48 -53 -48 -121 1 -87 38 -122 130 -122 93 0
130 37 130 131 0 58 -21 102 -57 118 -36 17 -124 13 -155 -6z" fill="white"/>
<path d="M731 3786 c-13 -7 -30 -24 -37 -37 -17 -30 -18 -120 -2 -154 22 -49
51 -55 248 -55 197 0 226 6 248 55 18 38 15 122 -5 156 -9 15 -30 33 -46 39
-45 15 -376 12 -406 -4z"  fill="white"/>
<path d="M4891 3786 c-35 -19 -50 -54 -51 -113 0 -96 36 -133 130 -133 93 0
130 37 130 131 0 93 -35 129 -125 128 -33 0 -71 -6 -84 -13z" fill="white"/>
<path d="M6191 3786 c-34 -19 -50 -54 -51 -107 0 -100 36 -139 130 -139 93 0
130 37 130 131 0 62 -23 105 -63 119 -41 14 -117 12 -146 -4z"  fill="white"/>
<path d="M7500 3789 c-37 -13 -60 -59 -60 -118 0 -94 37 -131 130 -131 93 0
130 39 130 136 0 56 -17 92 -51 110 -31 16 -110 17 -149 3z"  fill="white"/>
<path d="M471 3526 c-35 -19 -50 -54 -51 -114 0 -95 34 -131 123 -132 100 0
137 35 137 130 0 61 -16 97 -51 116 -35 18 -126 18 -158 0z" fill="white"/>
<path d="M1251 3526 c-45 -25 -50 -49 -51 -244 0 -199 -6 -228 -55 -250 -14
-7 -49 -12 -76 -12 -58 0 -102 -21 -118 -57 -6 -13 -11 -50 -11 -81 1 -85 38
-122 123 -122 24 0 58 -5 76 -11 54 -19 61 -46 61 -249 0 -202 7 -230 63 -250
19 -6 192 -10 463 -10 314 0 440 -3 459 -12 36 -16 55 -57 55 -118 0 -91 39
-130 130 -130 95 0 130 -37 130 -137 -1 -86 -37 -123 -123 -123 -62 0 -100
-16 -120 -49 -15 -26 -17 -73 -17 -471 0 -478 1 -483 55 -508 14 -7 48 -12 75
-12 93 0 130 -37 130 -130 0 -61 19 -102 55 -118 41 -19 637 -17 674 2 35 19
51 55 51 117 0 92 39 129 137 129 85 0 122 37 123 122 0 31 -5 68 -11 81 -16
36 -60 57 -119 57 -93 0 -130 37 -130 131 0 92 -39 129 -137 129 -50 0 -80
-12 -105 -44 -15 -18 -18 -47 -18 -216 0 -210 -3 -221 -57 -249 -28 -14 -118
-14 -146 0 -54 28 -57 39 -57 249 0 170 3 198 18 216 26 33 56 44 119 44 88 1
123 37 123 130 0 93 -37 130 -130 130 -27 0 -61 5 -75 12 -53 24 -55 40 -55
385 0 286 -2 320 -18 339 -26 33 -56 44 -119 44 -86 1 -123 37 -123 123 0 24
-5 58 -11 76 -21 59 -35 61 -379 61 -337 0 -354 2 -378 55 -7 14 -12 48 -12
76 0 92 -37 129 -131 129 -92 0 -128 35 -129 123 0 102 34 137 136 137 50 0
59 3 90 34 32 32 34 38 34 98 -1 96 -35 128 -137 128 -86 1 -123 37 -123 123
0 63 -18 105 -51 122 -35 18 -126 19 -158 1z"  fill="white"/>
<path d="M1771 3526 c-35 -19 -50 -54 -51 -113 0 -98 36 -133 137 -133 88 1
123 37 123 129 0 62 -16 98 -51 117 -35 18 -126 18 -158 0z" fill="white"/>
<path d="M215 3266 c-54 -24 -55 -29 -55 -507 0 -397 2 -444 17 -470 41 -70
198 -66 231 6 9 19 12 147 12 473 0 487 1 471 -57 501 -29 15 -111 13 -148 -3z" fill="white"/>
<path d="M735 3268 c-41 -22 -55 -50 -55 -116 0 -60 2 -66 34 -98 32 -32 38
-34 98 -34 96 1 128 35 128 139 0 53 -3 63 -31 90 -28 28 -36 31 -92 31 -34 0
-71 -6 -82 -12z" fill="white"/>
<path d="M2035 3268 c-40 -22 -55 -51 -55 -110 0 -69 12 -99 50 -121 32 -19
117 -23 153 -6 36 16 57 60 57 119 0 94 -39 130 -139 130 -25 0 -55 -6 -66
-12z"  fill="white"/>
<path d="M1754 2986 c-32 -32 -34 -38 -34 -97 1 -97 35 -129 139 -129 53 0 63
3 90 31 28 27 31 37 31 90 0 104 -32 138 -128 139 -60 0 -66 -2 -98 -34z" fill="white"/>
<path d="M2544 3002 c-33 -27 -44 -56 -44 -121 0 -53 3 -63 31 -90 27 -28 37
-31 90 -31 104 0 138 32 139 129 0 59 -2 65 -34 97 -32 32 -38 34 -97 34 -46
0 -70 -5 -85 -18z" fill="white"/>
<path d="M3334 3009 c-47 -23 -54 -54 -54 -249 0 -197 6 -226 55 -248 36 -17
120 -15 154 3 43 22 51 60 51 251 0 187 -5 211 -50 237 -31 19 -122 22 -156 6z" fill="white"/>
<path d="M3834 2986 c-32 -32 -34 -38 -34 -97 1 -97 35 -129 137 -129 86 -1
123 -37 123 -123 0 -98 37 -137 129 -137 94 0 131 37 131 130 0 93 39 130 137
130 85 0 122 37 123 122 0 69 -12 99 -50 121 -25 15 -67 17 -345 17 l-317 0
-34 -34z"  fill="white"/>
<path d="M4874 2986 c-32 -32 -34 -38 -34 -97 1 -97 35 -129 139 -129 53 0 63
3 90 31 28 27 31 37 31 90 0 104 -32 138 -128 139 -60 0 -66 -2 -98 -34z"  fill="white"/>
<path d="M2811 2486 c-35 -19 -50 -54 -51 -113 0 -98 36 -133 137 -133 88 1
123 37 123 129 0 62 -16 98 -51 117 -35 18 -126 18 -158 0z"  fill="white"/>
<path d="M3591 2486 c-35 -19 -50 -54 -51 -114 0 -95 34 -131 123 -132 100 0
137 35 137 130 0 61 -16 97 -51 116 -35 18 -126 18 -158 0z"  fill="white"/>
<path d="M4371 2486 c-35 -19 -50 -54 -51 -114 0 -65 22 -107 63 -122 48 -16
372 -13 406 4 35 19 51 55 51 117 0 60 -19 101 -55 117 -38 17 -382 16 -414
-2z"  fill="white"/>
<path d="M3075 2228 c-52 -28 -55 -40 -55 -248 0 -170 3 -198 18 -216 26 -32
55 -44 111 -44 94 0 131 37 131 129 0 94 37 131 130 131 59 0 103 21 119 57 6
13 11 50 11 81 0 60 -15 90 -57 111 -29 15 -381 14 -408 -1z" fill="white"/>
<path d="M3855 2228 c-40 -22 -55 -51 -55 -111 0 -68 -20 -114 -56 -127 -14
-6 -51 -10 -82 -10 -90 -1 -122 -37 -122 -139 0 -53 3 -63 31 -90 l31 -31 196
0 c172 0 200 -3 218 -18 32 -25 44 -55 44 -105 0 -98 37 -137 129 -137 94 0
131 37 131 130 0 93 39 130 137 130 85 0 122 37 123 122 0 126 -22 138 -260
138 -240 0 -260 11 -260 140 0 52 -3 62 -31 89 -28 28 -36 31 -92 31 -34 0
-71 -6 -82 -12z"  fill="white"/>
<path d="M501 1964 c-162 -44 -283 -166 -326 -331 -22 -84 -22 -1042 0 -1126
45 -172 166 -292 337 -332 92 -22 1024 -22 1116 0 171 40 292 160 337 332 22
84 22 1042 0 1126 -43 165 -156 281 -324 331 -47 14 -124 16 -570 15 -418 0
-526 -3 -570 -15z m951 -255 c105 -22 180 -82 233 -186 l30 -58 0 -395 c0
-385 -1 -396 -22 -442 -30 -66 -102 -139 -170 -174 l-58 -29 -395 0 c-385 0
-396 1 -442 22 -66 30 -139 102 -174 170 l-29 58 0 395 0 395 29 57 c49 96
126 161 219 184 69 16 703 19 779 3z" fill="white"/>
<path d="M860 1451 c-75 -24 -127 -70 -159 -141 -18 -40 -21 -65 -21 -240 0
-184 1 -198 24 -245 28 -60 66 -97 126 -124 40 -19 65 -21 245 -21 199 0 200
1 250 28 56 31 109 95 125 150 13 48 13 376 0 424 -15 53 -68 119 -120 148
-43 24 -52 25 -245 27 -110 1 -211 -2 -225 -6z"  fill="white"/>
<path d="M4371 1446 c-45 -25 -50 -49 -51 -244 0 -199 -6 -228 -55 -250 -17
-8 -89 -12 -211 -12 l-186 0 -34 -34 -34 -34 0 -186 c0 -122 -4 -194 -12 -211
-22 -49 -51 -55 -248 -55 -197 0 -226 -6 -248 -55 -18 -38 -15 -122 5 -156 9
-15 30 -33 46 -39 18 -6 153 -10 341 -10 403 1 376 -18 376 260 0 197 6 226
55 248 18 8 117 12 336 12 209 0 317 4 332 11 43 22 57 50 57 118 0 59 -2 65
-34 97 -31 31 -40 34 -90 34 -102 0 -136 35 -136 137 1 88 37 123 130 123 93
0 130 37 130 131 0 60 -19 101 -55 117 -38 17 -382 16 -414 -2z"  fill="white"/>
<path d="M3571 1169 c-28 -27 -31 -37 -31 -90 0 -104 32 -138 129 -139 59 0
65 2 97 34 32 32 34 38 34 98 -1 96 -35 128 -139 128 -53 0 -63 -3 -90 -31z"  fill="white"/>
<path d="M4891 666 c-35 -19 -50 -54 -51 -113 0 -96 36 -133 130 -133 93 0
130 37 130 131 0 93 -35 129 -125 128 -33 0 -71 -6 -84 -13z"  fill="white"/>
<path d="M2291 406 c-35 -19 -50 -54 -51 -114 0 -94 40 -132 137 -132 84 0
123 40 123 124 0 62 -18 104 -51 121 -35 18 -126 19 -158 1z"  fill="white"/>
<path d="M4631 406 c-35 -19 -50 -54 -51 -114 0 -95 34 -131 123 -132 100 0
137 35 137 130 0 61 -16 97 -51 116 -35 18 -126 18 -158 0z"  fill="white"/>
<path d="M5149 405 c-31 -17 -49 -61 -49 -121 0 -84 39 -124 123 -124 96 0
137 38 137 129 0 62 -16 98 -51 117 -36 18 -126 17 -160 -1z"  fill="white"/>
<path d="M5671 406 c-35 -19 -50 -54 -51 -114 0 -95 34 -131 123 -132 100 0
137 35 137 130 0 61 -16 97 -51 116 -35 18 -126 18 -158 0z"  fill="white"/>
</g>
</svg>
